<svg id="Capa_1" enable-background="new 0 0 512 512" height="512" viewBox="0 0 512 512" width="512" xmlns="http://www.w3.org/2000/svg"><g><g><path d="m178.827 189.806v67.488c0 12.615 10.226 22.841 22.841 22.841h162.238c5.88 0 11.568 2.091 16.048 5.899l67.102 57.037c4.788 4.07 12.146.667 12.146-5.617v-49.948c0-4.071 3.3-7.371 7.371-7.371h14.771c12.615 0 22.841-10.226 22.841-22.841v-67.488c0-12.615-10.226-22.841-22.841-22.841h-279.676c-12.615 0-22.841 10.226-22.841 22.841z" fill="#fece85"/></g><g><path d="m333.173 30.333v67.488c0 12.615-10.226 22.841-22.841 22.841h-162.238c-5.88 0-11.568 2.091-16.048 5.899l-67.102 57.037c-4.788 4.07-12.146.667-12.146-5.617v-49.948c0-4.071-3.3-7.371-7.371-7.371h-14.772c-12.615 0-22.841-10.226-22.841-22.841v-67.488c0-12.615 10.226-22.841 22.841-22.841h279.677c12.615 0 22.841 10.226 22.841 22.841z" fill="#d9b1ee"/></g><g><path d="m127.31 120.664h20.787c-5.883 0-11.567 2.088-16.053 5.893l-67.097 57.038c-4.795 4.076-12.147.669-12.147-5.614v-1.728l58.456-49.696c4.487-3.805 10.17-5.893 16.054-5.893z" fill="#cb97e7"/></g><g><path d="m333.173 349.464v67.488c0 12.615-10.226 22.841-22.841 22.841h-162.238c-5.88 0-11.568 2.091-16.048 5.899l-67.102 57.037c-4.788 4.07-12.146.667-12.146-5.617v-49.948c0-4.071-3.3-7.371-7.371-7.371h-14.772c-12.615 0-22.841-10.226-22.841-22.841v-67.488c0-12.615 10.226-22.841 22.841-22.841h279.677c12.615-.001 22.841 10.226 22.841 22.841z" fill="#d9b1ee"/></g><g><path d="m504.189 189.807v67.487c0 12.616-10.229 22.845-22.845 22.845h-14.774c-4.066 0-7.372 3.296-7.372 7.372v49.946c0 6.283-7.352 9.689-12.147 5.614l-8.63-7.332v-48.228c0-4.076 3.296-7.372 7.372-7.372h14.764c12.616 0 22.845-10.229 22.845-22.845v-67.487c0-12.616-10.229-22.845-22.845-22.845h20.787c12.617 0 22.845 10.229 22.845 22.845z" fill="#fec165"/></g><g><path d="m333.176 30.331v67.486c0 12.616-10.229 22.845-22.845 22.845h-20.787c12.616 0 22.845-10.229 22.845-22.845v-67.486c0-12.616-10.229-22.835-22.845-22.835h20.787c12.616 0 22.845 10.218 22.845 22.835z" fill="#cb97e7"/></g><g><path d="m127.31 439.795h20.787c-5.883 0-11.567 2.088-16.053 5.893l-67.097 57.038c-4.795 4.076-12.147.669-12.147-5.614v-1.728l58.456-49.696c4.487-3.805 10.17-5.893 16.054-5.893z" fill="#cb97e7"/></g><g><path d="m333.176 349.463v67.486c0 12.616-10.229 22.845-22.845 22.845h-20.787c12.616 0 22.845-10.229 22.845-22.845v-67.486c0-12.616-10.229-22.845-22.845-22.845h20.787c12.616 0 22.845 10.229 22.845 22.845z" fill="#cb97e7"/></g><g><path d="m30.655 128.154h14.651v49.828c0 5.861 3.305 11.03 8.624 13.49 2.028.938 4.164 1.397 6.281 1.397 3.437 0 6.82-1.214 9.584-3.563l20.655-17.556c3.153-2.68 3.536-7.408.856-10.56-2.68-3.154-7.409-3.536-10.56-.856l-20.457 17.386v-49.686c0-8.196-6.668-14.863-14.863-14.863h-14.771c-8.463 0-15.349-6.885-15.349-15.349v-67.489c0-8.464 6.886-15.349 15.349-15.349h279.677c8.463 0 15.349 6.885 15.349 15.349v67.489c0 8.464-6.886 15.349-15.349 15.349h-162.238c-7.649 0-15.071 2.729-20.9 7.682l-20.167 17.138c-3.153 2.679-3.537 7.408-.857 10.56 2.68 3.153 7.407 3.536 10.56.857l20.167-17.139c3.122-2.654 7.098-4.116 11.196-4.116h162.238c16.726 0 30.333-13.607 30.333-30.333v-67.487c.001-16.726-13.606-30.333-30.332-30.333h-279.677c-16.726 0-30.333 13.607-30.333 30.333v67.489c0 16.725 13.607 30.332 30.333 30.332z"/><path d="m280.099 55.096c4.138 0 7.492-3.354 7.492-7.492s-3.354-7.492-7.492-7.492h-39.968c-4.138 0-7.492 3.354-7.492 7.492 0 4.137 3.354 7.492 7.492 7.492z"/><path d="m60.887 55.096h144.412c4.138 0 7.492-3.354 7.492-7.492s-3.354-7.492-7.492-7.492h-144.412c-4.138 0-7.492 3.354-7.492 7.492s3.355 7.492 7.492 7.492z"/><path d="m60.887 88.042h219.212c4.138 0 7.492-3.354 7.492-7.492s-3.354-7.492-7.492-7.492h-219.212c-4.138 0-7.492 3.354-7.492 7.492s3.355 7.492 7.492 7.492z"/><path d="m310.332 319.13h-279.677c-16.725 0-30.333 13.607-30.333 30.333v67.489c0 16.726 13.607 30.333 30.333 30.333h14.651v49.827c0 5.861 3.305 11.031 8.625 13.491 2.027.938 4.164 1.397 6.28 1.397 3.438 0 6.821-1.213 9.585-3.563l67.102-57.037c3.122-2.654 7.098-4.115 11.196-4.115h162.238c16.726 0 30.333-13.607 30.333-30.333v-67.489c0-16.725-13.607-30.333-30.333-30.333zm15.349 97.822c0 8.463-6.886 15.349-15.349 15.349h-162.238c-7.649 0-15.072 2.728-20.9 7.683l-66.905 56.866v-49.685c0-8.196-6.668-14.864-14.863-14.864h-14.771c-8.463 0-15.349-6.886-15.349-15.349v-67.489c0-8.464 6.886-15.349 15.349-15.349h279.677c8.463 0 15.349 6.885 15.349 15.349z"/><path d="m282.097 359.244h-68.375c-4.138 0-7.492 3.354-7.492 7.492s3.354 7.492 7.492 7.492h68.375c4.138 0 7.492-3.354 7.492-7.492s-3.354-7.492-7.492-7.492z"/><path d="m62.885 374.227h115.942c4.138 0 7.492-3.354 7.492-7.492s-3.354-7.492-7.492-7.492h-115.942c-4.138 0-7.492 3.354-7.492 7.492s3.355 7.492 7.492 7.492z"/><path d="m282.097 392.188h-154.436c-4.138 0-7.492 3.354-7.492 7.492s3.354 7.492 7.492 7.492h154.436c4.138 0 7.492-3.354 7.492-7.492s-3.354-7.492-7.492-7.492z"/><path d="m92.828 392.188h-29.943c-4.138 0-7.492 3.354-7.492 7.492s3.354 7.492 7.492 7.492h29.943c4.138 0 7.492-3.354 7.492-7.492s-3.354-7.492-7.492-7.492z"/><path d="m481.345 159.473h-279.677c-16.725 0-30.333 13.607-30.333 30.333v67.488c0 16.726 13.607 30.333 30.333 30.333h56.663c4.138 0 7.492-3.354 7.492-7.492 0-4.137-3.354-7.492-7.492-7.492h-56.663c-8.463 0-15.349-6.886-15.349-15.35v-67.488c0-8.464 6.886-15.349 15.349-15.349h279.677c8.463 0 15.349 6.885 15.349 15.349v67.488c0 8.464-6.886 15.35-15.349 15.35h-14.772c-8.195 0-14.863 6.667-14.863 14.863l-.002 49.687-66.902-56.868c-5.83-4.954-13.252-7.682-20.901-7.682h-71.05c-4.138 0-7.492 3.354-7.492 7.492s3.354 7.492 7.492 7.492h71.05c4.098 0 8.074 1.462 11.197 4.115l67.102 57.037c2.765 2.35 6.147 3.563 9.584 3.563 2.116 0 4.254-.46 6.28-1.397 5.32-2.46 8.625-7.629 8.625-13.49v-49.828h14.651c16.726 0 30.333-13.607 30.333-30.333v-67.488c.001-16.725-13.606-30.333-30.332-30.333z"/><path d="m451.112 199.586h-219.212c-4.138 0-7.492 3.354-7.492 7.492s3.354 7.492 7.492 7.492h219.212c4.138 0 7.492-3.354 7.492-7.492s-3.354-7.492-7.492-7.492z"/><path d="m231.9 247.515h75.057c4.138 0 7.492-3.354 7.492-7.492 0-4.137-3.354-7.492-7.492-7.492h-75.057c-4.138 0-7.492 3.354-7.492 7.492s3.355 7.492 7.492 7.492z"/><path d="m451.112 232.531h-109.606c-4.138 0-7.492 3.354-7.492 7.492s3.354 7.492 7.492 7.492h109.606c4.138 0 7.492-3.354 7.492-7.492 0-4.137-3.354-7.492-7.492-7.492z"/></g></g></svg>