<svg id="Capa_1" enable-background="new 0 0 512.162 512.162" height="512" viewBox="0 0 512.162 512.162" width="512" xmlns="http://www.w3.org/2000/svg"><g><path d="m.081 386.207c0 34.685 14.093 66.139 36.853 88.94l101.147-77.985 76.896-100.057c-22.801-22.76-54.255-36.854-88.94-36.854-69.453 0-125.956 56.503-125.956 125.956z" fill="#ff5b5b"/><path d="m126.036 512.162c69.452 0 125.955-56.503 125.955-125.955 0-34.767-14.16-66.288-37.015-89.102l-178.042 178.042c22.814 22.855 54.335 37.015 89.102 37.015z" fill="#d24380"/><path d="m311.501 130.207h-110.84c-38.894 0-70.535 31.642-70.535 70.535v110.84c0 19.406 7.879 37.004 20.604 49.77l148.351-55.19 62.19-155.351c-12.766-12.725-30.365-20.604-49.77-20.604z" fill="#64e0db"/><path d="m361.271 150.81-210.542 210.541c12.779 12.82 30.444 20.765 49.931 20.765h110.84c38.894 0 70.535-31.642 70.535-70.535v-110.84c.001-19.487-7.945-37.152-20.764-49.931z" fill="#00c7c7"/><path d="m260.171 0v251.91l154.91-101.748 97-150.162z" fill="#4b97f7"/><path d="m260.171 251.91v.001h251.91v-251.911z" fill="#6b77e8"/></g></svg>