<svg id="Capa_1" enable-background="new 0 0 512 512" height="512" viewBox="0 0 512 512" width="512" xmlns="http://www.w3.org/2000/svg"><g><path d="m365.817 59.779c-24.601 0-44.614 19.738-44.614 44 0 4.142 3.357 7.5 7.5 7.5s7.5-3.358 7.5-7.5c0-15.991 13.285-29 29.614-29s29.614 13.009 29.614 29c0 4.142 3.357 7.5 7.5 7.5s7.5-3.358 7.5-7.5c.001-24.262-20.013-44-44.614-44zm38.497 64.11h-80.583c-4.143 0-7.5 3.358-7.5 7.5s3.357 7.5 7.5 7.5h80.583c4.143 0 7.5-3.358 7.5-7.5s-3.357-7.5-7.5-7.5zm0 165.001h-80.583c-4.143 0-7.5 3.357-7.5 7.5s3.357 7.5 7.5 7.5h80.583c4.143 0 7.5-3.357 7.5-7.5s-3.357-7.5-7.5-7.5zm-38.497 42.467c-24.601 0-44.614 19.738-44.614 44 0 4.143 3.357 7.5 7.5 7.5s7.5-3.357 7.5-7.5c0-15.99 13.285-29 29.614-29s29.614 13.01 29.614 29c0 4.143 3.357 7.5 7.5 7.5s7.5-3.357 7.5-7.5c.001-24.261-20.013-44-44.614-44zm30.745-85.513v-58.565c0-4.142-3.357-7.5-7.5-7.5s-7.5 3.358-7.5 7.5v58.565c0 4.142 3.357 7.5 7.5 7.5s7.5-3.358 7.5-7.5zm-61.01 0v-58.565c0-4.142-3.357-7.5-7.5-7.5s-7.5 3.358-7.5 7.5v58.565c0 4.142 3.357 7.5 7.5 7.5s7.5-3.358 7.5-7.5zm30.505 0v-58.565c0-4.142-3.357-7.5-7.5-7.5s-7.5 3.358-7.5 7.5v58.565c0 4.142 3.357 7.5 7.5 7.5s7.5-3.358 7.5-7.5zm-92.841-23.897-26.69-50.528c-2.487-4.708-7.844-7.097-13.042-5.811-5.243 1.3-8.767 5.784-8.767 11.158v119.624c0 4.143 3.357 7.5 7.5 7.5s7.5-3.357 7.5-7.5v-29.686l31.44-31.281c3.6-3.581 4.426-8.997 2.059-13.476zm-33.499 23.597v-54.899l19.009 35.987zm-63.468-112.2h24.741c6.916 0 12.542-5.626 12.542-12.542v-48.481c0-6.916-5.626-12.542-12.542-12.542h-24.741c-6.915 0-12.541 5.626-12.541 12.542v48.481c0 6.916 5.626 12.542 12.541 12.542zm2.459-58.565h19.824v43.565h-19.824zm95.834 51.065v-58.565c0-4.142-3.357-7.5-7.5-7.5s-7.5 3.358-7.5 7.5v58.565c0 4.142 3.357 7.5 7.5 7.5s7.5-3.358 7.5-7.5zm-186.192 134.236c0 3.841 1.577 7.595 4.326 10.298l18.935 18.622-18.935 18.622c-2.75 2.703-4.327 6.457-4.327 10.298v42.438c0 4.143 3.357 7.5 7.5 7.5s7.5-3.357 7.5-7.5v-42.194l19.185-18.866c2.789-2.744 4.325-6.4 4.325-10.297s-1.536-7.553-4.326-10.298l-19.184-18.865v-208.53c0-14.169-5.774-27.014-15.092-36.308h153.468l21.27 20.921c2.837 2.785 6.562 4.178 10.288 4.178 3.728 0 7.457-1.394 10.297-4.183l21.265-20.916h41.519c4.143 0 7.5-3.358 7.5-7.5s-3.357-7.5-7.5-7.5h-41.634c-3.869 0-7.521 1.487-10.3 4.203l-21.146 20.799-21.162-20.816c-2.762-2.699-6.41-4.186-10.272-4.186h-190.542c-28.291 0-51.308 23.017-51.308 51.308v27.954c0 12.476 10.15 22.625 22.626 22.625h65.724zm-65.724-173.193c-4.205 0-7.626-3.421-7.626-7.625v-27.954c0-20.02 16.287-36.308 36.308-36.308h.734c20.02 0 36.308 16.288 36.308 36.308v35.58h-65.724zm466.622 323.225h-27.978v-164.192c0-3.839-1.573-7.59-4.32-10.297l-21.987-21.623 21.991-21.628c2.742-2.702 4.315-6.453 4.315-10.292v-144.58c0-20.678-17.047-37.5-38-37.5h-41.906c-4.143 0-7.5 3.358-7.5 7.5s3.357 7.5 7.5 7.5h41.906c12.683 0 23 10.093 23 22.5v144.342l-22.225 21.856c-2.792 2.742-4.33 6.401-4.33 10.302s1.538 7.56 4.326 10.297l22.229 21.861v163.954h-246.818c-12.546 0-22.752 10.094-22.752 22.5v28.444c0 19.819-16.452 35.943-36.675 35.943s-36.675-16.124-36.675-35.943v-65.699c0-4.143-3.357-7.5-7.5-7.5s-7.5 3.357-7.5 7.5v65.699c0 28.09 23.182 50.943 51.675 50.943h320.301c28.493.001 51.675-22.853 51.675-50.942v-28.444c0-12.407-10.206-22.501-22.752-22.501zm7.752 50.945c0 19.819-16.452 35.943-36.675 35.943h-283.715c9.32-9.22 15.089-21.929 15.089-35.943v-28.444c0-4.136 3.478-7.5 7.752-7.5h289.797c4.274 0 7.752 3.364 7.752 7.5zm-229.958-123.2h-95.834c-4.143 0-7.5 3.357-7.5 7.5s3.357 7.5 7.5 7.5h95.834c4.143 0 7.5-3.357 7.5-7.5s-3.357-7.5-7.5-7.5zm-103.334-41.467c0 4.143 3.357 7.5 7.5 7.5s7.5-3.357 7.5-7.5v-29.686l31.439-31.281c3.6-3.581 4.426-8.998 2.059-13.476l-26.69-50.528c-2.487-4.708-7.849-7.097-13.041-5.811-5.243 1.3-8.767 5.784-8.767 11.158zm15-105.744 19.008 35.985-19.008 18.912zm88.334 177.211h-95.834c-4.143 0-7.5 3.357-7.5 7.5s3.357 7.5 7.5 7.5h95.834c4.143 0 7.5-3.357 7.5-7.5s-3.357-7.5-7.5-7.5z"/></g></svg>