<svg id="Capa_1" enable-background="new 0 0 512.027 512.027" height="512" viewBox="0 0 512.027 512.027" width="512" xmlns="http://www.w3.org/2000/svg"><g><path d="m208.22 344.415c-3.601 9.305.536 19.64 9.623 24.039 8.182 3.961 18.024.392 23.105-4.544 28.46-27.652 58.439-55.275 87.227-82.583 10.105-9.586 7.931-25.131-3.989-31.985-14.613-8.402-29.181-16.88-43.775-25.316 7.885-18.532 15.993-37.397 23.378-56.466 2.25-5.81 1.479-12.337-2.062-17.463-7.422-10.742-21.167-11.059-30.672-2.016-14.319 13.624-28.823 26.874-40.623 38.033-3.01 2.846-3.142 7.593-.296 10.603 2.847 3.01 7.593 3.142 10.603.296 11.807-11.167 26.322-24.426 40.656-38.064 3.504-3.334 5.98-3.236 7.992-.324.52.752 1.014 1.973.416 3.518-7.887 20.37-16.713 40.692-25.171 60.676-1.946 4.597-.366 9.205 4.024 11.738 16.026 9.249 32.015 18.563 48.055 27.789 3.486 2.005 4.083 5.311 1.143 8.099-28.804 27.317-58.32 55.236-87.213 82.57-3.474 3.287-5.019 2.539-6.259 1.938-2.027-.981-2.939-3.136-2.17-5.125 7.871-20.338 16.317-39.636 25.2-60.673 1.469-3.479 1.286-8.635-4.066-11.713-16.14-9.281-32.436-18.37-48.482-28.058-3.213-1.94-3.402-5.279-.7-7.839 7.143-6.767 13.984-13.148 21.133-19.908 3.01-2.846 3.143-7.593.297-10.603-2.847-3.009-7.593-3.144-10.603-.297-7.153 6.764-13.997 13.148-21.144 19.918-9.759 9.245-8.433 24.507 3.264 31.569 14.795 8.932 29.689 17.297 44.507 25.781-8.259 19.455-15.998 37.286-23.398 56.41zm295.903-151.075c-2.803-11.003-11.032-19.369-22.012-22.379-11.092-3.04-22.576.008-30.712 8.158-7.804 7.817-10.964 19.308-8.25 29.988 18.855 74.18-7.786 152.412-67.872 199.307-33.09 25.828-72.738 39.882-114.658 40.642-40.526.714-80.976-11.561-113.938-34.624-2.198-1.538-2.203-4.042-.005-5.887l19.406-14.906c13.104-9.898 6.851-31.446-8.929-33.347l-89.313-11.646c-10.226-1.324-19.655 5.906-21.008 16.136l-11.752 89.283c-2.284 15.915 17.073 27.321 29.93 17.219l23.893-18.356c1.372-1.055 3.292-1.047 4.562.012 43.838 36.597 99.673 57.546 157.218 58.987 58.294 1.46 116.041-17.392 162.265-53.088 18.357-14.176 34.65-30.731 48.426-49.206 2.477-3.321 1.792-8.02-1.529-10.496-3.321-2.475-8.02-1.792-10.496 1.529-12.96 17.38-28.292 32.958-45.569 46.3-43.52 33.598-97.775 51.335-152.722 49.965-54.176-1.357-106.73-21.07-147.984-55.51-6.617-5.517-16.419-5.682-23.31-.39l-23.889 18.354c-2.983 2.077-6.238.329-5.924-3.365l11.75-89.277c.271-2.043 2.155-3.487 4.2-3.223l89.31 11.645c3.674.666 4.49 4.223 1.73 6.579l-19.403 14.904c-9.859 7.44-9.695 22.909.549 30.077 35.533 24.862 79.164 38.113 122.803 37.327 45.196-.819 87.942-15.97 123.615-43.814 64.776-50.556 93.501-134.88 73.181-214.827-1.42-5.585.238-11.599 4.327-15.695 4.275-4.283 10.306-5.887 16.131-4.29 5.71 1.565 9.988 5.908 11.442 11.616 7.552 29.645 9.364 60.166 5.386 90.714-3.978 30.545-13.546 59.598-28.44 86.353-2.015 3.619-.714 8.186 2.905 10.201 3.62 2.016 8.187.713 10.201-2.905 15.821-28.42 25.984-59.276 30.208-91.711 4.227-32.441 2.301-64.859-5.723-96.354zm-440.407 78.848c-5.011-56.383 14.718-111.712 54.125-151.8 29.432-29.932 66.915-49.061 108.397-55.316 40.091-6.046 81.846.824 117.574 19.344 1.365.708 1.742 1.927 1.845 2.591.088.566.161 2.014-1.058 3.234l-17.282 17.311c-5.374 5.382-6.962 13.388-4.047 20.395 2.905 6.983 9.667 11.49 17.237 11.489h.04l90.131-.186c10.318-.025 18.708-8.434 18.702-18.748l-.093-89.993c-.001-7.57-4.521-14.332-11.518-17.226-7.024-2.907-15.04-1.304-20.417 4.083l-21.286 21.321c-1.229 1.23-3.137 1.48-4.542.592-48.299-30.505-106.437-43.933-163.699-37.811-58.119 6.213-112.794 32.457-153.953 73.897-53.116 53.466-79.655 127.427-72.813 202.919 1.105 12.2 8.959 22.371 20.496 26.544 11.492 4.157 24.262 1.435 33.081-7.397 6.608-6.618 9.917-15.819 9.08-25.243zm-19.695 14.645c-4.671 4.679-11.161 6.133-17.363 3.889-6.091-2.203-10.076-7.359-10.66-13.793-6.441-71.065 18.531-140.679 68.516-190.993 38.739-39.003 90.201-63.705 144.905-69.553 53.591-5.729 108.614 6.831 154.093 35.578 7.281 4.602 17.025 3.477 23.168-2.675l21.286-21.322c1.596-1.598 3.377-1.105 4.068-.819.841.348 2.251 1.248 2.251 3.374l.093 89.996c.001 2.055-1.676 3.73-3.736 3.735l-90.128.186h-.01c-2.211 0-3.104-1.573-3.386-2.25-.285-.684-.774-2.446.813-4.037l17.282-17.311c4.21-4.218 6.178-10.249 5.265-16.133-.917-5.907-4.476-10.866-9.764-13.607-38.514-19.965-83.516-27.373-126.713-20.859-44.72 6.744-85.128 27.364-116.856 59.632-42.495 43.229-63.77 102.875-58.37 163.644.443 4.994-1.29 9.848-4.754 13.318z"/></g></svg>